M48
;DRILL file {KiCad 4.0.4+dfsg1-stable} date Wed Jan 11 10:42:00 2017
;FORMAT={-:-/ absolute / metric / decimal}
FMAT,2
METRIC,TZ
T1C0.400
T2C0.500
T3C0.762
T4C0.800
T5C0.800
T6C0.813
T7C1.000
T8C1.001
T9C1.200
T10C1.270
%
G90
G05
M71
T1
X95.25Y-81.28
X104.14Y-119.38
X105.41Y-127.
X114.3Y-111.76
X121.92Y-109.22
T2
X124.46Y-95.39
X124.46Y-96.64
X124.46Y-97.89
X124.46Y-99.14
X124.46Y-100.39
X124.46Y-101.64
X124.46Y-102.89
X124.46Y-104.14
T3
X93.98Y-92.71
X93.98Y-100.33
X96.52Y-92.71
X96.52Y-100.33
X99.06Y-92.71
X99.06Y-100.33
X101.6Y-92.71
X101.6Y-100.33
X111.76Y-101.87
X111.76Y-103.87
X112.76Y-102.87
T4
X82.55Y-82.55
X82.55Y-85.05
X83.82Y-107.88
X83.82Y-130.88
X86.36Y-107.88
X86.36Y-130.88
X88.9Y-107.88
X88.9Y-130.88
X90.17Y-83.82
X91.44Y-107.88
X91.44Y-130.88
X93.98Y-107.88
X93.98Y-130.88
X96.52Y-88.9
X96.52Y-107.88
X96.52Y-130.88
X99.06Y-107.88
X99.06Y-130.88
X101.6Y-107.88
X101.6Y-130.88
X104.14Y-107.88
X104.14Y-130.88
X106.68Y-97.79
X106.68Y-100.29
X106.68Y-107.88
X106.68Y-130.88
X109.22Y-107.88
X109.22Y-130.88
X111.76Y-107.88
X111.76Y-130.88
X114.3Y-107.88
X114.3Y-130.88
X116.84Y-107.88
X116.84Y-130.88
X119.38Y-107.88
X119.38Y-130.88
T5
X78.74Y-87.63
X78.74Y-100.33
X90.17Y-86.32
X94.02Y-88.9
T6
X101.6Y-87.63
X106.68Y-87.63
T7
X96.52Y-123.19
X102.87Y-115.57
X106.52Y-123.19
X112.87Y-115.57
T8
X80.01Y-104.14
X90.17Y-104.14
X104.14Y-104.143
T9
X82.63Y-93.98
X87.63Y-93.98
X115.57Y-88.98
X115.57Y-93.98
T10
X93.98Y-104.143
T0
M30
